<svg xmlns="http://www.w3.org/2000/svg" width="19.848" height="27.001" viewBox="590.005 402.999 19.848 27.001"><path d="M604.947 404.192a10.578 10.578 0 0 0-5.004-1.192 11.387 11.387 0 0 0-2.413.252 9.346 9.346 0 0 0-7.524 9.302 4.694 4.694 0 0 0 .014.358c.416 5.436 9.854 17.088 9.854 17.088a29.927 29.927 0 0 0 .124-.154c1.148-1.425 9.854-12.4 9.854-17.317a9.277 9.277 0 0 0-4.905-8.337Zm-2.494 4.685a3.351 3.351 0 0 0-2.51-1.112 3.489 3.489 0 0 0-.191.005 3.233 3.233 0 0 0-3.113 3.171 3.094 3.094 0 0 0 .793 2.064 3.351 3.351 0 0 0 2.51 1.113 3.489 3.489 0 0 0 .192-.006 3.233 3.233 0 0 0 3.112-3.17 3.094 3.094 0 0 0-.793-2.065Z" fill="rgba(0, 0, 0, 1)" fill-rule="evenodd" data-name="vv"/></svg>