<svg xmlns="http://www.w3.org/2000/svg" width="18.073" height="24.749" viewBox="590.935 453.141 18.073 24.749"><path d="M592.617 454.633a2.301 2.301 0 0 0-.297.272c-1.087 1.163-2.91 4.939 1.011 12.512a35.278 35.278 0 0 0 .778 1.42 33.377 33.377 0 0 0 1.92 2.971c4.715 6.473 8.902 6.395 10.094 5.86a1.253 1.253 0 0 0 .142-.075l-3.826-6.445a1.161 1.161 0 0 1-.27.119c-.717.203-1.392-.492-2.446-1.884a56.43 56.43 0 0 1-.356-.476.755.755 0 0 1-.035-.054 348.306 348.306 0 0 1-2.683-4.515.643.643 0 0 1-.035-.068 21.523 21.523 0 0 1-.063-.138c-.522-1.16-.904-2.32-.054-2.868a1.338 1.338 0 0 1 .046-.03l-3.926-6.6Zm6.257 5.23a.839.839 0 0 0 .288-.28.823.823 0 0 0 .124-.45.838.838 0 0 0-.117-.411v-.006l-3.035-5.103a18.14 18.14 0 0 0-.039-.065.824.824 0 0 0-.412-.35.842.842 0 0 0-.709.046.863.863 0 0 0-.022.012l-1.83 1.08 3.921 6.605s1.83-1.072 1.83-1.075l.001-.003Zm9.725 16.372a.83.83 0 0 0 .287-.278.825.825 0 0 0 .122-.457.852.852 0 0 0-.117-.41v-.004l-2.95-4.96a81.989 81.989 0 0 0-.038-.063.836.836 0 0 0-1.12-.304.867.867 0 0 0-.023.013l-1.83 1.08 3.836 6.461a707.647 707.647 0 0 0 .02-.012c.201-.118 1.81-1.062 1.81-1.064l.003-.002Z" fill="rgba(0, 0, 0, 1)" fill-rule="evenodd" data-name="telephone"/></svg>